# xmcd
#
# Track frame offsets: 
#        150
#        22650
#        39195
#        56772
#        72292
#        95670
#        105480
#        125007
#        146800
#        170085
#        203897
#        226657
#        253237
#        274777
#        291700
#        307960
#
# Disc length: 4558 seconds
#
# Revision: 4
# Processed by: cddbd v1.5.2PL0 Copyright (c) Steve Scherf et al.
# Submitted via: ExactAudioCopyFreeDBPlugin 1.0
#
DISCID=ed11cc10
DTITLE=The Allman Brothers Band - Gold [DISK 2]
DYEAR=2005
DGENRE=Blues Rock
TTITLE0=One Way Out (Live)
TTITLE1=Ain't Wasting Time No More
TTITLE2=Melissa
TTITLE3=Stand Back
TTITLE4=Blue Sky
TTITLE5=Little Martha
TTITLE6=Wasted Words
TTITLE7=Ramblin' Man
TTITLE8=Southbound
TTITLE9=Jessica
TTITLE10=Come And Go Blues (Live)
TTITLE11=Can't Lose What You Never Had
TTITLE12=Win, Lose, Or Draw
TTITLE13=Crazy Love
TTITLE14=Can't Take It With You
TTITLE15=Pegasus
EXTD=
EXTT0=
EXTT1=
EXTT2=
EXTT3=
EXTT4=
EXTT5=
EXTT6=
EXTT7=
EXTT8=
EXTT9=
EXTT10=
EXTT11=
EXTT12=
EXTT13=
EXTT14=
EXTT15=
PLAYORDER=
